<svg width="70" height="78" viewBox="0 0 70 78" fill="none" xmlns="http://www.w3.org/2000/svg">
<path d="M46.2474 37.05C46.0719 39.1072 44.3559 40.7127 42.2694 40.7127C40.0659 40.7127 38.2751 38.9252 38.2751 36.7185C38.2751 34.5117 40.0626 32.7242 42.2661 32.7242C44.4859 32.8185 46.2474 34.6417 46.2474 36.8745C46.2474 36.9362 46.2474 36.9947 46.2441 37.0565V37.0467L46.2474 37.05ZM28.0344 32.7275C25.7984 32.9257 24.0597 34.788 24.0597 37.0565C24.0597 39.325 25.7984 41.1872 28.0182 41.3855H28.0344C30.2542 41.2912 32.0156 39.468 32.0156 37.2352C32.0156 37.1735 32.0157 37.115 32.0124 37.0532V37.063C32.0157 36.998 32.0189 36.9232 32.0189 36.8452C32.0189 34.619 30.2607 32.8055 28.0572 32.721H28.0507L28.0344 32.7275ZM69.2249 8.03399V77.9999C59.4001 69.3159 62.5396 72.1922 51.1289 61.5809L53.1959 68.7959H8.96667C4.54993 68.7829 0.97168 65.2014 0.97168 60.7814C0.97168 60.7749 0.97168 60.7684 0.97168 60.7619V8.03399C0.97168 8.02749 0.97168 8.02099 0.97168 8.01449C0.97168 3.5945 4.54993 0.013 8.96342 0H61.2266C65.6434 0.013 69.2216 3.5945 69.2216 8.01449L69.2249 8.03399ZM58.1099 45.006C57.9734 36.6892 55.9129 28.886 52.3574 21.9765L52.4939 22.269C49.4909 19.8932 45.7079 18.3852 41.5804 18.1772L41.5349 18.174L40.9889 18.798C44.7264 19.812 47.9764 21.5182 50.7454 23.7867L50.6999 23.751C46.1531 21.2517 40.7354 19.7795 34.9731 19.7795C30.1209 19.7795 25.5124 20.8227 21.3589 22.698L21.5669 22.6135C20.1239 23.2765 19.2659 23.751 19.2659 23.751C22.1389 21.4045 25.5774 19.6365 29.3409 18.681L29.5229 18.642L29.1329 18.174C24.9599 18.3852 21.1769 19.8932 18.1349 22.2982L18.1739 22.269C14.7549 28.886 12.6944 36.6892 12.5579 44.9605V45.006C15.1547 48.6167 19.3439 50.9405 24.0727 50.9405C24.2059 50.9405 24.3392 50.9372 24.4724 50.934H24.4529C24.4529 50.934 25.8959 49.179 27.0659 47.697C24.2514 46.9722 21.8919 45.3342 20.2637 43.1275L20.2409 43.095C20.8129 43.498 21.7619 44.018 21.8334 44.07C25.7627 46.254 30.4524 47.5377 35.4444 47.5377C39.3151 47.5377 43.0039 46.7642 46.3644 45.3667L46.1759 45.435C47.8919 44.7785 49.3674 44.005 50.7389 43.0852L50.6576 43.1372C48.9481 45.422 46.5074 47.0762 43.6896 47.762L43.6051 47.7782C44.7751 49.2602 46.1791 50.9372 46.1791 50.9372C46.2864 50.9405 46.4131 50.9405 46.5399 50.9405C51.2881 50.9405 55.4936 48.62 58.0839 45.0482L58.1099 45.006Z" fill="white"/>
</svg>
