<svg width="78" height="78" viewBox="0 0 78 78" fill="none" xmlns="http://www.w3.org/2000/svg">
<path fill-rule="evenodd" clip-rule="evenodd" d="M39 0C60.5396 0 77.9999 17.9007 77.9999 39.9864C77.9999 57.6495 66.8381 72.6334 51.3512 77.9257C49.374 78.3195 48.672 77.0708 48.672 76.0061C48.672 74.6879 48.7187 70.3825 48.7187 65.0317C48.7187 61.3033 47.4708 58.8699 46.0707 57.6297C54.756 56.6391 63.8819 53.2575 63.8819 37.8993C63.8819 33.5313 62.3687 29.9669 59.8649 27.1667C60.2705 26.1566 61.6082 22.0894 59.4827 16.5826C59.4827 16.5826 56.2145 15.5112 48.7694 20.6825C45.6533 19.7972 42.315 19.3518 39 19.3362C35.685 19.3518 32.3505 19.7972 29.2383 20.6825C21.7854 15.5112 18.5094 16.5826 18.5094 16.5826C16.3917 22.0894 17.7294 26.1566 18.1311 27.1667C15.639 29.9669 14.1141 33.5313 14.1141 37.8993C14.1141 53.2185 23.2206 56.6519 31.8825 57.662C30.7671 58.6604 29.757 60.4217 29.406 63.0074C27.183 64.0292 21.5358 65.7976 18.057 59.6863C18.057 59.6863 15.9939 55.8443 12.0783 55.5635C12.0783 55.5635 8.27579 55.513 11.8131 57.9934C11.8131 57.9934 14.3676 59.2219 16.1421 63.8434C16.1421 63.8434 18.4314 70.9802 29.2812 68.5622C29.3007 71.9045 29.3358 75.0545 29.3358 76.0061C29.3358 77.063 28.6182 78.3 26.6721 77.9295C11.1735 72.645 0 57.6534 0 39.9864C0 17.9007 17.4642 0 39 0Z" fill="white"/>
</svg>
