<svg width="66" height="66" viewBox="0 0 66 66" fill="none" xmlns="http://www.w3.org/2000/svg">
<path fill-rule="evenodd" clip-rule="evenodd" d="M0.899414 13.5C0.899414 6.32029 6.7197 0.5 13.8994 0.5H52.8994C60.0789 0.5 65.8993 6.32029 65.8993 13.5V52.4999C65.8993 59.6795 60.0789 65.4999 52.8994 65.4999H13.8994C6.7197 65.4999 0.899414 59.6795 0.899414 52.4999V13.5ZM13.8994 6.99999C10.3096 6.99999 7.39941 9.91014 7.39941 13.5V52.4999C7.39941 56.0899 10.3096 58.9999 13.8994 58.9999H52.8994C56.4893 58.9999 59.3994 56.0899 59.3994 52.4999V13.5C59.3994 9.91014 56.4893 6.99999 52.8994 6.99999H13.8994ZM33.3994 23.25C28.0145 23.25 23.6494 27.615 23.6494 33C23.6494 38.3849 28.0145 42.75 33.3994 42.75C38.7843 42.75 43.1494 38.3849 43.1494 33C43.1494 27.615 38.7843 23.25 33.3994 23.25ZM17.1494 33C17.1494 24.0254 24.4248 16.75 33.3994 16.75C42.3739 16.75 49.6494 24.0254 49.6494 33C49.6494 41.9745 42.3739 49.25 33.3994 49.25C24.4248 49.25 17.1494 41.9745 17.1494 33ZM51.2744 20C53.9667 20 56.1494 17.8174 56.1494 15.125C56.1494 12.4326 53.9667 10.25 51.2744 10.25C48.5821 10.25 46.3994 12.4326 46.3994 15.125C46.3994 17.8174 48.5821 20 51.2744 20Z" fill="white"/>
</svg>
