<svg width="79" height="78" viewBox="0 0 79 78" fill="none" xmlns="http://www.w3.org/2000/svg">
<path d="M39.6992 0C18.1578 0 0.699219 17.4586 0.699219 39C0.699219 60.5413 18.1578 77.9999 39.6992 77.9999C61.2406 77.9999 78.6991 60.5413 78.6991 39C78.6991 17.4586 61.2406 0 39.6992 0ZM28.7914 55.316H21.1894V30.9867H28.7914V55.316ZM24.7847 27.9398H24.7238C21.9664 27.9398 20.184 26.0812 20.184 23.7199C20.184 21.3129 22.0273 19.5 24.8304 19.5C27.6336 19.5 29.3551 21.3129 29.416 23.7199C29.4312 26.066 27.6488 27.9398 24.7847 27.9398ZM59.1992 55.316H50.5765V42.7324C50.5765 39.4418 49.2359 37.1871 46.2652 37.1871C43.9953 37.1871 42.7308 38.7105 42.1519 40.173C41.9386 40.691 41.9691 41.4222 41.9691 42.1687V55.316H33.4226C33.4226 55.316 33.5293 33.0129 33.4226 30.9867H41.9691V34.8105C42.4718 33.1347 45.1988 30.7582 49.5558 30.7582C54.964 30.7582 59.1992 34.2621 59.1992 41.7878V55.316Z" fill="white"/>
</svg>
