<svg width="48" height="48" viewBox="0 0 48 48" fill="none" xmlns="http://www.w3.org/2000/svg">
<path d="M42.6667 42.6667H48V48H42.6667V42.6667ZM42.6667 37.3333H48V32H42.6667V37.3333ZM0 26.6667H5.33333V21.3333H0V26.6667ZM0 37.3333H5.33333V32H0V37.3333ZM0 16H5.33333V10.6667H0V16ZM0 5.33333H5.33333V0H0V5.33333ZM10.6667 5.33333H16V0H10.6667V5.33333ZM32 48H37.3333V42.6667H32V48ZM21.3333 48H26.6667V42.6667H21.3333V48ZM32 48H37.3333V42.6667H32V48ZM10.6667 48H16V42.6667H10.6667V48ZM0 48H5.33333V42.6667H0V48ZM48 13.3333C48 5.97333 42.0267 0 34.6667 0H21.3333V5.33333H34.6667C39.0667 5.33333 42.6667 8.93333 42.6667 13.3333V26.6667H48V13.3333Z" fill="white"/>
</svg>
